<svg xmlns="http://www.w3.org/2000/svg" width="398.132" height="60.217" viewBox="0 0 105.339 15.932"><path d="m33.265 57.692 3.314.207.055.006.054.009.053.013.052.014.05.016.05.02.047.022.047.026.044.029.043.029.041.032.04.034.036.037.036.038.032.04.03.041.614.086.598.1.579.114.556.13.53.142.254.077.247.08.239.085.23.087.221.092.212.094.202.098.192.102.182.105.17.108.16.112.148.115.135.119.123.122.11.126.096.128.083.133.069.135.054.139.04.142.022.145.006.149-.002.068-.006.067-.01.067-.014.066-.016.066-.016.065-.023.065-.025.064-.03.064-.032.064-.034.063-.037.062-.04.061-.044.062-.047.06-.05.06.049.06.046.058.043.06.04.06.037.061.034.062.032.063.03.063.025.064.023.065.02.065.015.066.014.067.01.068.006.068.002.069-.002.069-.006.068-.01.068-.014.067-.016.066-.02.066-.022.065-.026.064-.029.063-.032.063-.034.062-.037.061-.04.061-.044.06-.046.06-.05.058.047.054.043.055.041.056.039.057.02.029.015.029.017.029.016.029.016.029.016.03.014.028.013.03.431.176.41.184.386.193.362.2.337.207.312.214.287.22.133.113.126.115.12.115.112.117.105.12.098.12.09.12.084.123.076.125.068.125.06.126.053.128.045.129.037.13.03.13.019.133.013.133.003.134-.016.267-.05.262-.081.258-.113.254-.144.25-.173.244-.434.47-.544.448-.648.42-.746.393-.838.36-.924.328-1.003.291-1.077.253-1.146.213-1.206.17-1.262.123-1.312.076-1.355.026-.682-.006-.672-.02-.662-.032-.65-.044-.637-.056-.625-.068-.61-.08-.597-.09-.58-.1-.565-.112-.547-.121-.53-.132-.511-.14-.493-.15-.472-.16-.451-.168-.43-.177-.408-.184-.385-.192-.361-.2-.337-.207-.311-.214-.285-.22-.26-.227-.23-.233-.202-.238-.174-.245-.144-.249-.113-.254-.081-.258-.05-.263-.016-.266h.817l.013.194.043.195.071.195.098.195.277.386.381.379.482.369.58.354.671.337.762.317.847.292.93.265 1.009.233 1.083.199 1.154.16 1.222.12 1.286.073 1.345.026.68-.006.666-.02.65-.031.636-.043.619-.054.602-.065.586-.075.569-.086.55-.095.533-.103.514-.113.495-.12.474-.13.455-.135.435-.143.413-.15.392-.155.37-.161.347-.166.325-.172.301-.175.278-.18.253-.182.229-.186.203-.188.178-.19.152-.193.125-.194.098-.195.07-.194.043-.195.014-.195-.003-.09-.01-.09-.017-.09-.022-.09-.061-.18-.084-.18-.107-.179-.13-.178-.153-.177-.174-.175-.196-.173-.218-.17-.238-.169-.26-.165-.279-.162-.299-.158-.318-.154-.338-.15-.014.046-.013.045-.016.045-.017.044-.019.045-.02.044-.022.043-.023.043-.025.043-.026.042-.026.042-.03.042-.028.042-.032.04-.033.041-.034.04.049.06.046.059.043.06.04.06.038.061.034.062.033.063.029.064.026.064.022.065.02.065.016.067.013.067.01.067.005.069.002.069-.014.196-.041.19-.068.185-.094.179-.118.173-.142.167-.164.16-.186.156-.434.293-.51.268-.58.244-.638.219-.693.194-.739.17-.777.143-.808.119-.83.092-.848.067-.855.04-.856.013-.856-.013-.856-.04-.847-.067-.83-.092-.809-.119-.777-.143-.738-.17-.693-.194-.327-.107-.313-.112-.297-.12-.281-.124-.264-.132-.246-.137-.227-.143-.208-.149-.186-.155-.164-.161-.142-.167-.118-.173-.094-.179-.068-.184-.041-.191-.014-.196h.817l.01.097.029.1.113.202.185.207.257.208.326.208.394.203.46.197.523.187.586.175.646.161.706.143.762.123.817.101.87.075.923.047.972.017.493-.003.48-.014.467-.02.455-.025.442-.034.429-.041.415-.048.402-.053.388-.059.374-.064.36-.07.345-.073.331-.079.316-.082.3-.086.286-.09.27-.092.254-.095.237-.097.222-.1.205-.1.189-.103.171-.103.155-.104.137-.104.12-.104L42.3 68l.084-.103.065-.102.047-.101.03-.1.01-.096-.001-.03-.003-.029-.003-.029-.006-.029-.01-.029-.008-.029-.014-.029-.013-.03-.017-.031-.016-.033-.02-.032-.018-.032-.023-.032-.023-.033-.026-.032-.025-.032-.333.203-.37.192-.407.178-.44.167-.469.153-.496.14-.52.127-.543.115-.56.101-.578.088-.59.075-.6.061-.609.048-.613.034-.616.023-.614.006-.555-.006-.556-.016-.554-.029-.55-.04-.546-.05-.539-.06-.528-.073-.517-.082-.01-.001h-.008l-.017-.002h-.018l-.009-.002h-.003l-.003-.001-.016-.003-.016-.003-.016-.003-.016-.003-.03-.006-.028-.006-.293-.056-.288-.06-.282-.062-.276-.067-.27-.07-.262-.074-.255-.077-.248-.081-.172-.06h3.75l.358.04.367.035.378.033.386.025.396.02.406.016.415.009.424.003.673-.006.651-.023.627-.036.602-.05.577-.063.552-.073.525-.085.499-.094.47-.103.444-.111.415-.118.385-.124.356-.13.326-.134.295-.137.263-.14.054-.033.052-.032.05-.033.05-.032.047-.032.045-.032.045-.033.043-.032.045-.035.045-.036.042-.035.04-.036.038-.035.036-.036.016-.016.017-.02.016-.016.016-.016.026-.029.022-.029.023-.029.02-.029.019-.03.016-.028.016-.03.014-.028.013-.03.014-.029.009-.029.01-.029.006-.029.006-.029.003-.026.003-.025v-.008l.001-.003v-.003l.001-.003v-.003l.001-.003v-.034l-.004-.029-.003-.029-.006-.029-.006-.029-.01-.029-.014-.029-.013-.03-.016-.028-.016-.032-.02-.033-.019-.029-.023-.032-.022-.032-.026-.033-.026-.032-.056.038-.058.037-.06.036-.06.036-.062.036-.063.036-.064.034-.065.035-.05.026-.05.026-.103.05-.106.048-.107.048-.13.056-.134.055-.137.053-.14.052-.156.055-.16.054-.163.053-.167.05-.395.112-.411.103-.425.094-.438.087-.449.078-.458.07-.468.061-.474.053-.034.016-.035.017-.035.013-.036.014-.037.013-.038.014-.038.009-.04.009-.04.009-.04.006-.042.006-.043.006-.044.003-.044.003-.046.001h-.112l-.065-.003-.063-.003-.062-.006-.061-.006-.06-.009-.058-.009-.058-.013-.404.022-.405.016-.405.01-.404.002-.35-.003-.35-.006-.35-.009-.35-.016-.348-.02-.348-.025-.345-.029-.343-.033-.06.304-.034.154-.039.153-.042.152-.023.074-.026.074-.026.072-.029.07-.032.069-.033.066h-3.75l-.068-.022-.23-.088-.222-.092-.212-.095-.203-.099-.192-.102-.182-.105-.17-.11-.026.033-.026.032-.022.032-.023.033-.02.032-.019.032-.016.032-.016.033-.014.029-.013.029-.01.029-.005.03-.006.028-.003.03-.003.028v.03h-.818l.002-.07.006-.068.009-.068.013-.067.016-.066.02-.066.022-.065.026-.064.03-.063.032-.063.034-.062.037-.062.04-.06.044-.06.046-.06.049-.058-.034-.04-.033-.04-.032-.042-.03-.041-.028-.042-.026-.042-.026-.043-.026-.042-.022-.044-.023-.043-.02-.044-.019-.044-.016-.044-.016-.045-.014-.045-.013-.046-.338.15-.319.154-.299.158-.279.162-.259.165-.239.168-.217.17-.101.087-.095.087-.09.088-.085.087-.079.089-.073.088-.068.09-.062.088-.057.09-.05.09-.045.09-.04.09-.032.09-.03.09-.022.09-.016.09-.01.09-.002.089h-.817l.003-.134.013-.133.023-.132.029-.131.037-.13.045-.129.113-.254.145-.25.173-.243.204-.24.231-.232.26-.227.286-.221.312-.214.338-.207.337-.187h1.946v.012l.002.003v.01l.001.002v.003l.004.026.003.026.006.029.006.029.009.029.009.029.013.03.014.028.013.03.016.028.017.03.019.028.02.03.022.029.023.029.025.029.033.035.034.036.036.035.038.036.04.035.042.036.044.035.046.036.043.032.044.032.046.033.047.032.049.032.05.032.053.033.053.032.2.108.22.107.237.105.256.103.274.1.291.096.309.093.325.09-.023-.072-.019-.073-.036-.149-.032-.153-.026-.157-.023-.16-.02-.161-.015-.164-.014-.164-.13-.035-.129-.035-.126-.035-.125-.037-.167-.05-.164-.054-.16-.053-.156-.056-.14-.052-.137-.053-.133-.055-.13-.056-.108-.047-.105-.05-.103-.049-.05-.026-.05-.026-.065-.034-.065-.035-.063-.035-.061-.036-.06-.036-.06-.037-.058-.037-.057-.037-.026.032-.025.032-.023.032-.023.033-.019.029-.02.032-.016.032-.016.03-.013.028-.014.03-.009.028-.006.03-.006.029-.003.029-.003.029v.029h-1.946l.025-.014.386-.192.41-.185.43-.176.014-.03.014-.028.016-.03.016-.029.016-.029.017-.029.016-.029.02-.029.018-.029.02-.03.041-.055.044-.055.045-.055-.049-.058-.046-.06-.043-.06-.04-.06-.038-.061-.034-.063-.032-.062-.03-.064-.025-.064-.023-.065-.02-.066-.015-.066-.014-.067-.009-.068-.006-.068-.001-.07h.817v.03l.003.029.003.029.006.029.006.03.01.028.013.03.013.028.016.033.017.032.019.029.02.032.022.032.023.033.025.032.026.032.033.036.033.035.037.035.037.036.04.035.043.035.044.036.046.035.034.026.035.026.035.026.037.026.038.025.039.026.04.026.04.026.043.026.023.013.009.006.009.006.113.062.119.062.125.062.131.06.137.06.144.06.15.059.154.058.079.029.079.029.08.029.083.026.11.035.113.034.115.034.117.034-.01-.13-.005-.065-.006-.064-.003-.036-.003-.037-.006-.072-.01-.087-.005-.042-.006-.043-.01-.052-.008-.05-.014-.049-.013-.045-.017-.044L28 64.33l-.016-.04-.02-.037-.019-.036-.019-.034-.02-.032-.022-.029-.023-.03-.022-.025-.023-.026-.023-.022-.013-.014-.014-.013-.013-.01-.014-.008-.009-.01-.009-.008-.022-.02-.02-.016-.019-.016-.02-.013-.019-.014-.009-.006-.009-.006-.009-.006-.009-.006-.009-.003-.009-.003-.006-.003-.006-.003-.013-.006-.01-.003-.005-.003h-.003l-.131-.043-.128-.043-.125-.043-.122-.044-.14-.053-.138-.053-.133-.054-.13-.056-.127-.057-.123-.059-.119-.06-.115-.06-.11-.061-.106-.062-.102-.063-.098-.064-.026.032-.025.032-.023.033-.023.032-.019.032-.02.032-.016.03-.013.028-.014.03-.009.029-.009.029-.006.029-.006.029-.003.029-.003.029v.03h-.817l.001-.07.006-.068.01-.067.013-.067.016-.066.02-.066.022-.064.026-.064.029-.064.032-.062.034-.062.037-.061.04-.06.043-.06.046-.06.049-.058-.05-.06-.047-.06-.043-.062-.041-.062-.038-.062-.034-.063-.032-.063-.03-.064-.025-.064-.023-.065-.019-.065-.016-.066-.014-.067-.009-.066-.003-.067-.001-.068h.817v.029l.004.03.003.028.006.03.006.028.009.03.013.029.014.032.016.029.016.032.016.032.02.033.022.032.023.032.022.032.026.033.032.036.034.035.036.036.037.036.04.036.041.035.044.036.046.035.042.033.045.032.046.032.047.032.049.033.05.032.053.032.053.032.143.08.152.077.161.077.17.075.179.074.187.072.195.07.203.068.053.016.026.01.026.008.023.006.022.006.023.01.026.008.025.01.026.013.026.013.026.014.026.016.029.016.029.016.029.02.029.019.029.02.03.022.028.023.043.034.042.036.043.04.042.04.022.023.023.023.02.022.019.023.02.023.018.026.02.025.02.026.018.026.02.029.02.03.019.028.019.03.02.028.015.033.017.032.035.07.032.072.033.076.029.078.013.041.014.041.013.043.01.043.008.044.01.045.005.045.006.046.003.017.003.016.003.035.003.036.003.034.003.026.003.026.006.05.02.202.008.1.006.103.01.126.005.126.003.064.003.032.002.032.001.017v.009l.001.009.01.133.008.13.006.108.01.107.008.103.01.1.015.14.017.133.019.126.023.12.025.113.014.054.013.052.017.05.016.048.016.046.016.045.02.042.019.04.02.038.022.036.023.034.022.032.026.03.026.025.029.026.029.022.03.02.031.016.033.016.034.013.035.01.037.005h.002l.001.001h.003l.001.001h.006l.017.002.013.002.014.001.013.001.014.002h.013l.014.001h.013l.054-.003.05-.009.046-.02.043-.025.04-.035.037-.043.036-.053.033-.062.032-.071.03-.082.028-.092.03-.102.029-.114.029-.125.058-.286.006-.037.006-.039.033-.16.032-.16.022-.1.023-.1.023-.1v-.002h.848l.304.029.31.026.316.022.323.016.328.014.335.009.341.006.348.001h.245l.242-.004-.042-.055-.043-.058-.042-.06-.043-.06-.043-.065-.043-.066-.043-.068-.043-.071-.014-.022-.013-.023-.014-.023-.016-.022-.016-.02-.016-.02-.016-.018-.017-.02-.016-.02-.016-.019-.032-.036-.034-.035-.033-.033-.044-.041-.044-.04-.045-.036-.045-.034-.044-.032-.044-.03-.043-.028-.043-.026-.041-.023-.04-.023-.04-.019-.037-.016-.035-.016-.033-.014-.033-.013-.029-.01-.013-.002-.014-.003-.013-.003-.014-.003-.013-.003-.01-.003-.01-.002h-.006l-.047-.004-.047-.003-.044-.003-.044-.003-.042-.003-.04-.001-.04-.001h-.109l-.068.004-.067.006-.033.003-.033.003-.033.006-.032.006-.033.006-.032.006-.032.009-.032.009-.033.009-.032.013-.038.016-.037.017-.038.019-.037.02-.037.022-.037.023-.037.025-.036.026-.036.03-.037.028-.036.033-.036.035-.037.036-.036.039-.036.041-.036.044-.029.035-.029.037-.013.02-.017.018-.013.02-.014.02-.016.022-.016.026-.016.025-.014.026-.013.026-.014.026-.025.055-.023.058-.023.06-.022.062-.02.064h-.847l.026-.095.013-.05.014-.052.016-.05.016-.05.016-.05.016-.048.02-.05.02-.047.022-.056.026-.054.025-.054.026-.053.03-.052.028-.052.033-.05.032-.049.002-.003.001-.003.002-.003.001-.003.003-.003.002-.003.001-.003.045-.063.046-.06.045-.06.047-.056.047-.055.048-.053.048-.05.05-.049.003-.001.003-.003.003-.003.006-.003.003-.003.009-.006.003-.003.006-.003.076-.067.078-.063.08-.057.082-.054.084-.049.086-.044.088-.04.09-.036.092-.032.095-.026.097-.022.1-.02.102-.016.105-.009.108-.006.111-.003h.049l.05.002.05.001.053.003.053.003.055.003.056.003.058.006.046.006.049.01.05.013.054.013.056.016.057.02.06.022.06.026.061.03.063.028.064.033.064.036.065.038.064.041.065.044.065.046v0h0v0l.059.044.057.047.058.048.056.051.055.053.054.055.026.03.026.028.025.03.026.029.03.033.025.034.026.035.026.036.026.036.025.036.026.038.023.038.02.034.018.032.04.063.057.087.055.08.053.073.052.068.051.062.05.057.048.052.047.046.047.042.046.038.045.033.045.03.045.025.044.023.045.019.044.016.026.006.025.006.026.006.026.006.026.003.026.003.025.003.026.003.052.006.052.003.054.001.055.001h.048l.023-.002.023-.002.022-.003.023-.003.023-.003.022-.006.023-.006.023-.006.022-.009.02-.009.022-.013.02-.014.022-.016.02-.016.022-.02.023-.019.022-.023.023-.022.023-.026.01-.014h.947l.275-.04.268-.043.262-.045.254-.048.245-.05.238-.052.232-.055.224-.056.194-.052.19-.053.183-.055.177-.056.083-.025.08-.026.08-.03.078-.028.155-.058.15-.059.142-.06.138-.06.131-.06.125-.061.12-.062.112-.063.013-.006.01-.006.022-.013.043-.026.04-.026.04-.026.04-.026.037-.025.037-.026.036-.026.034-.026.034-.026.046-.035.044-.036.043-.035.04-.036.038-.035.036-.035.034-.036.016-.016.016-.016.026-.032.025-.033.023-.032.023-.032.019-.032.02-.033.016-.032.016-.029.013-.032.014-.03.009-.028.01-.03.006-.028.003-.03.003-.029.001-.029v-.029l-.004-.029-.003-.03-.006-.028-.006-.03-.01-.028-.01-.03-.013-.028-.016-.03-.016-.032-.02-.032-.019-.029-.022-.032-.023-.032-.026-.033-.026-.032-.098.064-.102.064-.106.062-.11.061-.115.06-.119.06-.122.058-.127.058-.13.055-.133.054-.136.054-.141.052-.155.055-.159.054-.164.052-.167.052-.09.026-.092.025-.186.051-.161.043-.164.041-.167.04-.171.04-.003.001-.006.001-.013.003-.017.003-.022.003-.108.02-.117.026-.125.032-.064.02-.065.022-.065.022-.066.026-.065.026-.065.029-.065.033-.062.035-.062.038-.06.04-.02.014-.019.013-.01.006-.01.006-.01.006-.009.006-.022.02-.023.02-.023.018-.02.02-.018.02-.02.022-.02.022-.019.023-.019.023-.016.022-.016.023-.016.026-.017.026-.016.025-.013.026-.014.026-.009.02-.003.008-.006.01-.003.008-.003.01-.003.008-.003.01-.029.077-.03.077-.028.075-.03.075-.035.086-.036.084-.037.082-.037.08h-.947l.013-.016.023-.032.023-.033.022-.036.023-.037.022-.041.023-.043.049-.095.05-.107.039-.087.04-.094.041-.102.043-.109.019-.046.02-.048.015-.038.017-.038.016-.036.016-.037.02-.036.019-.036.02-.035.018-.035.002-.003.001-.003.003-.003.003-.003.003-.003.006-.01.003-.002.003-.003.036-.055.039-.054.04-.053.042-.052.045-.05.046-.05.048-.047.05-.046.052-.045.054-.044.056-.042.057-.042.06-.039.062-.038.063-.037.065-.036.068-.034.07-.033.072-.032.074-.03.076-.028.077-.026.079-.026.08-.023.054-.016.054-.013.055-.014.055-.013.056-.014.057-.013.058-.01.058-.008.023-.003.117-.026.115-.026.113-.029.11-.03.197-.051.19-.053.184-.055.176-.055.21-.07.2-.073.188-.072.178-.075.168-.075.158-.076.147-.076.138-.077.054-.032.052-.032.05-.033.049-.032.047-.032.045-.032.044-.033.042-.032.046-.036.044-.036.042-.036.04-.035.038-.036.035-.036.034-.035.016-.016.016-.016.026-.032.026-.033.022-.032.023-.032.02-.032.019-.033.016-.032.013-.032.014-.029.013-.03.01-.028.005-.03.006-.028.003-.03.003-.028.001-.03-.006-.073-.016-.075-.065-.152-.108-.155-.15-.158-.189-.158-.23-.158-.27-.156-.308-.153-.346-.15-.384-.144-.42-.138-.455-.13-.49-.123-.523-.112-.556-.102-.59-.089v.03l-.003.07-.006.07-.013.072-.016.073-.02.073-.022.072-.03.072-.032.071-.035.07-.038.067-.041.066-.045.062-.046.06-.05.056-.051.052-.054.048-.085.071-.434.364-.444.372-.21.177-.05.04-.054.037-.057.036-.06.034-.063.032-.065.03-.067.029-.068.025-.07.023-.07.02-.071.016-.072.016-.07.013-.07.01-.07.005-.069.002h-.039l-.019-.002h-.019l-3.283-.218-.038-.003-.038-.003-.036-.006-.037-.006-.036-.009-.034-.009-.035-.013-.034-.014-.033-.013-.032-.016-.033-.017-.032-.016-.029-.02-.029-.018-.029-.023-.029-.023-.023-.019-.022-.02-.023-.019-.02-.022-.019-.023-.019-.023-.02-.022-.016-.023-.016-.023-.016-.025-.016-.026-.016-.026-.014-.026-.013-.026-.014-.025-.009-.026-.013-.035-.014-.036-.009-.036-.003-.02-.003-.019-.003-.02-.003-.019-.003-.019-.001-.02-.002-.019-.001-.019-.001-.02v-.019h.817v.003l.002.003.001.003.003.003.003.006.003.006.006.006.006.006.006.006.006.006.006.003.01.003.002.002.006.001.003.002.006.001.006.001.006.001.006.001h.006l.932.062 2.377.156h.034l.036-.004.036-.003.037-.006.037-.009.037-.009.037-.009.037-.013.035-.014.034-.013.032-.014.032-.016.03-.016.025-.016.023-.016.02-.016v-.002l.457-.383.715-.599.019-.016.02-.02.019-.022.02-.026.018-.026.017-.029.016-.029.016-.029.014-.032.013-.032.014-.03.01-.029.006-.029.006-.029.003-.025.001-.023v-.392l-.002-.003-.001-.003-.003-.003-.003-.006-.003-.006-.006-.006-.006-.006-.006-.006-.006-.006-.006-.003-.01-.003-.002-.001-.003-.002-.006-.001-.003-.001-.006-.002h-.006l-.006-.001h-.006l-3.21-.2-.133-.008h-.016l-.02.001-.018.001-.02.002-.02.003-.019.003-.019.003-.02.003-.028.006-.03.006-.029.006-.029.006-.029.006-.029.009-.029.009-.026.009-.025.009-.026.009-.026.013-.023.014-.022.013-.02.014-.019.013-.016.014-.4.294-.702.516-.02.016-.018.02-.02.022-.02.023-.018.025-.017.026-.016.026-.016.03-.014.028-.013.03-.01.025-.008.026-.006.026-.006.022-.003.023-.001.02v.59h-.817v-.59l.001-.049.003-.048.006-.05.01-.049.008-.05.014-.05.016-.05.016-.05.02-.05.022-.049.023-.048.026-.048.025-.048.03-.046.029-.045.029-.044-.314.041-.307.045-.297.048-.289.051-.28.054-.272.058-.262.06-.254.062-.244.065-.235.066-.226.07-.217.07-.206.073-.198.074-.188.076-.177.077-.168.078-.157.08-.148.079-.137.08-.127.081-.117.081-.105.082-.096.081-.084.081-.073.081-.062.08-.052.08-.04.079-.029.078-.016.077-.006.075h-.817l.009-.167.029-.163.05-.159.068-.155.086-.15.104-.146.121-.142.138-.138.323-.262.381-.245.436-.228.485-.21.531-.192.571-.174.607-.156.639-.138.665-.12.687-.1.704-.083.717-.063.214-.158.056-.038.059-.036.063-.035.067-.032.069-.03.071-.028.074-.026.074-.023.076-.019.076-.016.076-.014.075-.013.074-.01.074-.002.07-.002z" style="fill:#fff;fill-opacity:1;fill-rule:evenodd;stroke:#d864ff;stroke-width:0;stroke-linecap:round;stroke-linejoin:round;stroke-opacity:1" transform="translate(-20.877 -57.692)"/><path d="m57.077 63.561-.119-.152-.169-.085-1.456-.474-1.473.034-1.474.525-.558 1.033-.051.203.05.22.543 1 1.117.558 2.134.423.677.339.305.643v.22l-.288.593-1.067.356h-1.151l-1.067-.356-.457-.847-.17-.084-.186-.034-.17.05-.152.12-.084.152-.017.186.034.186.558 1.016.17.102 1.456.457 1.473-.017 1.473-.542.542-1.016.051-.22-.05-.643-.526-1-1.117-.575-2.134-.424-.677-.338-.254-.525.237-.491 1.067-.356h1.151l1.067.356.457.846.17.102.169.017.186-.05.153-.12.084-.152.017-.186zm2.59 1.524v4.386l.052.186.101.153.153.101.169.034.186-.034.153-.101.101-.153.034-.186v-4.183l1.135-1.134.71-.356h1.085l.61.305.338 1.05v4.318l.05.186.102.153.153.101.169.034.186-.034.153-.101.101-.153.034-.186v-4.386l-.457-1.473-.085-.152-.152-.119-.88-.44-.204-.051h-1.32l-.22.05-.864.441-.644.593v-3.675l-.034-.186-.101-.153-.153-.101-.186-.034-.17.034-.152.101-.101.153-.051.186zm9.484-1.744-1 .965-.118.186-.44 1.321v1.169l.44 1.32.118.187.864.88 1.016.525.203.051h1.321l.203-.05 1-.526.88-.88.118-.187.458-1.456-.017-1.033-.44-1.32-.12-.187-.88-.88-.999-.525-.203-.051H70.2zm1.202.457h1.084l.71.356.746.745.372 1.134v.729l-.372 1.134-.745.745-.711.356h-1.084l-.711-.356-.745-.745-.373-1.134v-.729l.373-1.134.745-.745zm5.977 5.673.034.186.102.153.17.101.168.034.187-.034.152-.101.102-.153.034-.186v-3.438l.389-1.134.745-.745.694-.356h1.22l.169-.034.152-.101.102-.153.05-.186-.05-.17-.102-.152-.152-.118-1.49-.034-.22.05-.88.441-.627.593v-.61l-.034-.17-.102-.152-.152-.118-.187-.034-.169.034-.17.118-.1.153-.035.17zm6.164-6.621-1.016.034-.17.118-.1.153-.035.17.034.185.102.153.169.101 1.016.034v3.912l.457 1.473.102.152.135.119.88.44.22.051 1.05-.034.153-.101.102-.153.05-.186-.05-.186-.102-.153-.152-.101-.17-.034h-.778l-.593-.305-.356-1.05v-3.844l1.457-.034.152-.101.102-.153.05-.186-.05-.17-.102-.152-.152-.118-.17-.034h-1.287v-2.59l-.034-.187-.101-.153-.153-.101-.186-.034-.186.034-.153.101-.101.153-.034.186zm13.851.711-.118-.152-.17-.085-1.456-.474-1.473.034-1.473.525-.559 1.033-.05.203.05.22.542 1 1.118.558 2.133.423.678.339.304.643v.22l-.288.593-1.066.356h-1.152l-1.067-.356-.457-.847-.17-.084-.185-.034-.17.05-.152.12-.085.152-.017.186.034.186.559 1.016.17.102 1.456.457 1.473-.017 1.473-.542.542-1.016.05-.22-.05-.643-.525-1-1.118-.575-2.133-.424-.678-.338-.254-.525.237-.491 1.067-.356h1.152l1.067.356.457.846.169.102.17.017.186-.05.152-.12.085-.152.017-.186zm3.049-.711-1.016.034-.17.118-.101.153-.034.17.034.185.101.153.17.101 1.016.034v3.912l.457 1.473.101.152.136.119.88.44.22.051 1.05-.034.153-.101.101-.153.051-.186-.05-.186-.102-.153-.153-.101-.169-.034h-.779l-.593-.305-.355-1.05v-3.844l1.456-.034.152-.101.102-.153.05-.186-.05-.17-.102-.152-.152-.118-.17-.034h-1.286v-2.59l-.034-.187-.102-.153-.152-.101-.186-.034-.187.034-.152.101-.102.153-.034.186zm9.584.576-1-.525-.202-.051h-1.321l-.203.05-1.016.526-.864.88-.119.186-.44 1.321v1.169l.44 1.32.119.187.999.965.88.44.204.051h1.32l.204-.05.88-.441.187-.152.05.355.102.153.152.101.17.034.186-.034.152-.101.102-.153.034-.186v-6.147l-.034-.17-.102-.152-.152-.118-.186-.034-.17.034-.152.118-.102.153-.05.338zm.067 1.422v3.116l-.677.677-.711.356h-1.084l-.711-.356-.745-.745-.373-1.134v-.729l.373-1.134.745-.745.711-.356h1.084l.711.356zm8.264-1.422-1-.525-.202-.051h-1.321l-.203.05-1.016.526-.864.88-.118.186-.44 1.321v1.169l.44 1.32.118.187 1 .965.88.44.203.051h1.32l.204-.05.999-.526.982-1.033.034-.186-.034-.17-.101-.169-.153-.101-.186-.034-.17.034-.152.101-.83.83-.71.356h-1.085l-.71-.356-.746-.745-.372-1.134v-.729l.372-1.134.745-.745.711-.356h1.084l.711.356.983.931.169.034.186-.034.153-.101.101-.153.034-.186-.034-.186zm3.133 4.284v1.76l.05.187.102.153.152.101.17.034.186-.034.152-.101.102-.153.034-1.744 1.27-1.253 2.726 3.116.153.118.186.051.17-.017.168-.102.119-.152.034-.17-.017-.186-.085-.152-2.794-3.183 2.32-2.32.102-.153.05-.186-.05-.17-.102-.152-.152-.118-.17-.034-.186.034-.152.118-3.59 3.573V60.26l-.034-.186-.102-.153-.152-.101-.186-.034-.17.034-.152.101-.102.153-.05.186z" aria-label="short stack" style="font-weight:500;font-size:11.2889px;font-family:&quot;AVHershey Simplex&quot;;-inkscape-font-specification:&quot;AVHershey Simplex Medium&quot;;fill:#fff;stroke-width:.396874" transform="translate(-20.877 -57.692)"/></svg>