<?xml version="1.0" encoding="UTF-8" standalone="no"?>
<!-- Created with Inkscape (http://www.inkscape.org/) -->

<svg
   width="17.433424mm"
   height="10.621164mm"
   viewBox="0 0 17.433424 10.621164"
   version="1.1"
   id="svg1"
   inkscape:version="1.3.2 (091e20e, 2023-11-25)"
   sodipodi:docname="pancake.svg"
   xmlns:inkscape="http://www.inkscape.org/namespaces/inkscape"
   xmlns:sodipodi="http://sodipodi.sourceforge.net/DTD/sodipodi-0.dtd"
   xmlns="http://www.w3.org/2000/svg"
   xmlns:svg="http://www.w3.org/2000/svg">
  <sodipodi:namedview
     id="namedview1"
     pagecolor="#ffffff"
     bordercolor="#000000"
     borderopacity="0.25"
     inkscape:showpageshadow="2"
     inkscape:pageopacity="0.0"
     inkscape:pagecheckerboard="0"
     inkscape:deskcolor="#d1d1d1"
     inkscape:document-units="mm"
     inkscape:zoom="2.8869498"
     inkscape:cx="28.576874"
     inkscape:cy="9.3524314"
     inkscape:window-width="1392"
     inkscape:window-height="891"
     inkscape:window-x="0"
     inkscape:window-y="37"
     inkscape:window-maximized="0"
     inkscape:current-layer="layer1"
     inkscape:clip-to-page="false" />
  <defs
     id="defs1" />
  <g
     inkscape:label="Layer 1"
     inkscape:groupmode="layer"
     id="layer1"
     transform="translate(-0.3846178,-0.44156477)">
    <path
       style="fill:#000000;fill-opacity:1;fill-rule:evenodd;stroke:#d864ff;stroke-width:0;stroke-linecap:round;stroke-linejoin:round;stroke-opacity:1"
       d="m 8.643503,0.44156477 2.209395,0.1374151 0.03656,0.0043 0.03591,0.00645 0.03527,0.0086 0.03462,0.0086 0.03355,0.010752 0.0329,0.012903 0.03183,0.015053 0.03097,0.017204 0.02968,0.019354 0.0286,0.019354 0.02753,0.021505 0.02602,0.022795 0.02473,0.0243 0.02344,0.025375 0.02172,0.026666 0.01935,0.027526 0.409665,0.056987 0.398913,0.066665 0.385794,0.076342 0.370742,0.086019 0.353537,0.095481 0.169457,0.051181 0.164511,0.053762 0.159135,0.056127 0.153329,0.058278 0.147522,0.060858 0.141286,0.063009 0.134835,0.065374 0.128168,0.067525 0.120856,0.070105 0.113975,0.072256 0.106019,0.074621 0.09849,0.076772 0.09032,0.079137 0.08193,0.081288 0.07333,0.083653 0.0643,0.085804 0.05527,0.088169 0.04581,0.09032 0.03613,0.09247 0.02624,0.094836 0.01505,0.096771 0.0043,0.099137 -0.0011,0.04516 -0.0043,0.044945 -0.0065,0.044515 -0.0086,0.044085 -0.01075,0.04387 -0.01075,0.043654 -0.01505,0.043224 -0.0172,0.042794 -0.01935,0.042579 -0.02151,0.042364 -0.02258,0.041934 -0.02495,0.041504 -0.0271,0.041074 -0.02903,0.040859 -0.03118,0.040429 -0.03333,0.040214 0.03247,0.038923 0.03054,0.039354 0.0286,0.039784 0.02688,0.040214 0.02473,0.040859 0.02279,0.041289 0.0215,0.041719 0.01936,0.042149 0.0172,0.042579 0.01505,0.043224 0.0129,0.04344 0.01075,0.044085 0.0086,0.044515 0.0065,0.04516 0.0043,0.045375 0.0011,0.04602 -0.0011,0.04602 -0.0043,0.045805 -0.0065,0.04516 -0.0086,0.044515 -0.01075,0.0443 -0.0129,0.043654 -0.01505,0.043224 -0.0172,0.042794 -0.01936,0.042364 -0.0215,0.041934 -0.02301,0.041289 -0.02473,0.040859 -0.02688,0.040429 -0.02882,0.039999 -0.03075,0.039569 -0.03269,0.038924 0.03054,0.036343 0.02903,0.036773 0.02753,0.037203 0.02559,0.037633 0.0129,0.019354 0.01075,0.019354 0.01075,0.019354 0.01075,0.019354 0.01075,0.019354 0.01075,0.019354 0.0086,0.019354 0.0086,0.019354 0.287518,0.1176308 0.27268,0.1230069 0.257412,0.1281681 0.241497,0.1333293 0.22494,0.1380603 0.208165,0.1427913 0.190747,0.1470922 0.08882,0.075266 0.08408,0.076127 0.07957,0.077202 0.07484,0.078062 0.0701,0.079137 0.06538,0.080213 0.06043,0.080858 0.0557,0.081933 0.05054,0.082793 0.04537,0.083438 0.04043,0.084299 0.03527,0.085159 0.02989,0.086019 0.02473,0.086449 0.01935,0.087309 0.0129,0.088169 0.0086,0.088599 0.0022,0.089245 -0.01075,0.177844 -0.0329,0.1750484 -0.05462,0.1722527 -0.07527,0.169242 -0.0957,0.166016 -0.115695,0.162791 -0.289023,0.314184 -0.362569,0.298055 -0.431815,0.280637 -0.497404,0.261282 -0.558692,0.2406381 -0.615896,0.218273 -0.669011,0.194187 -0.718258,0.168597 -0.763417,0.141716 -0.804492,0.1129 -0.841264,0.08258 -0.874382,0.05075 -0.903198,0.0172 -0.45504,-0.0043 -0.4481581,-0.0129 -0.4410617,-0.0215 -0.43332,-0.02946 -0.4249332,-0.03742 -0.4163313,-0.04516 -0.4070843,-0.0529 -0.3974072,-0.06 -0.3870849,-0.06731 -0.3763325,-0.07441 -0.364935,-0.08086 L 4.1986943,10.488783 3.8578445,10.394808 3.5296825,10.294596 3.2148535,10.188362 2.9137875,10.076323 2.6269146,9.9586919 2.3550949,9.8356849 2.0985437,9.7075169 1.8579059,9.5744029 1.6333967,9.4363429 1.4258762,9.2937659 1.2357745,9.1468889 1.0633066,8.9957109 0.90954787,8.8404469 0.77449827,8.6815269 0.65880287,8.5187359 0.56289187,8.3527199 0.48762537,8.1834779 0.43321847,8.0112249 0.40010117,7.8361765 0.38934877,7.6583325 h 0.5447145 l 0.0086,0.1296735 0.028601,0.1301035 0.047095,0.1298885 0.065374,0.1296739 0.1847255,0.257411 0.2539707,0.25268 0.3212805,0.245799 0.3860097,0.236337 0.4479432,0.224939 0.5079414,0.211177 0.5649289,0.194832 0.619981,0.176339 0.6722374,0.1554791 0.7221284,0.132469 0.7696537,0.107094 0.8145987,0.07935 0.8569629,0.04925 0.8971767,0.0172 0.453534,-0.0043 0.443643,-0.0129 0.43375,-0.0215 0.423213,-0.0286 0.41289,-0.03613 0.401708,-0.04322 0.390526,-0.05011 0.379128,-0.05699 0.367086,-0.06322 0.355042,-0.06925 0.342571,-0.07505 0.329667,-0.08043 0.316549,-0.0858 0.303432,-0.09053 0.289453,-0.09527 0.275476,-0.09957 0.261282,-0.103653 0.246659,-0.107524 0.231606,-0.110749 0.216337,-0.11419 0.201069,-0.116986 0.184941,-0.119351 0.168812,-0.121932 0.152468,-0.123867 0.13548,-0.125587 0.118706,-0.127093 0.101072,-0.128168 0.08344,-0.129244 0.06537,-0.1296731 0.0471,-0.1298885 0.0286,-0.1301035 0.0086,-0.1296735 -0.0019,-0.059783 -0.0065,-0.059998 -0.01073,-0.060001 -0.01505,-0.059998 -0.04043,-0.1199963 -0.05591,-0.1197812 -0.0714,-0.1195663 -0.08666,-0.118706 L 16.882176,6.8217991 16.765835,6.7050284 16.635087,6.5895481 16.490145,6.4757882 16.331225,6.3635336 16.158327,6.2534294 15.972096,6.1456908 15.772748,6.0403177 15.560281,5.9375251 l -0.225154,-0.099782 -0.0086,0.030322 -0.0086,0.030107 -0.01075,0.029892 -0.01075,0.029676 -0.0129,0.029461 -0.0129,0.029246 -0.01505,0.028816 -0.01505,0.028816 -0.0172,0.028601 -0.0172,0.028171 -0.0172,0.028171 -0.01936,0.027741 -0.01935,0.027741 -0.02151,0.027311 -0.02172,0.027096 -0.0228,0.026881 0.03269,0.039139 0.03075,0.039569 0.02882,0.039784 0.02688,0.040429 0.02494,0.041074 0.02301,0.041289 0.0215,0.041934 0.01935,0.042149 0.0172,0.042794 0.01505,0.043225 0.0129,0.04387 0.01075,0.044085 0.0086,0.04473 0.0065,0.04516 0.0043,0.04559 0.0011,0.04602 -0.0086,0.1307487 -0.02774,0.1270929 -0.04516,0.1230069 -0.06236,0.1191362 -0.07871,0.1152652 -0.09462,0.1113945 -0.109674,0.1073085 -0.124082,0.1036527 -0.289453,0.1948321 -0.340205,0.17892 -0.38558,0.162575 -0.426223,0.146017 -0.461921,0.129674 -0.492458,0.1129 -0.517834,0.09591 -0.538693,0.07892 -0.553962,0.0615 -0.564713,0.0443 -0.570305,0.02667 -0.570736,0.0086 -0.570735,-0.0086 -0.5703049,-0.02667 -0.5644988,-0.0443 -0.5541765,-0.0615 -0.5384781,-0.07892 -0.5180486,-0.09591 -0.492458,-0.1129 L 4.8348038,8.5965829 4.616961,8.5256179 4.4085803,8.4505659 4.2103068,8.3712139 4.0230007,8.2879909 3.8468771,8.2004669 3.6827961,8.1090709 3.5314029,8.0135904 3.3933426,7.9142386 3.2692604,7.8105859 3.1595864,7.7032774 3.0649656,7.5918829 2.9862584,7.4766177 2.9238947,7.3574815 2.8787348,7.2344746 2.8509937,7.1073817 2.8423918,6.976633 h 0.5447145 l 0.00645,0.064729 0.019354,0.066235 0.075266,0.1352647 0.1236522,0.1380603 0.1711775,0.1389204 0.2174127,0.1380603 0.2625726,0.1356948 0.3064422,0.1309637 0.3490215,0.1249424 0.3907407,0.1169853 0.4309545,0.107094 0.4700931,0.09548 0.5081565,0.08215 0.5447144,0.06709 0.5806274,0.05011 0.6148204,0.0314 0.648152,0.01075 0.328162,-0.0022 0.31999,-0.0086 0.311603,-0.0129 0.303217,-0.0172 0.294829,-0.0228 0.285798,-0.02731 0.276981,-0.03161 0.267948,-0.03548 0.258702,-0.03935 0.24924,-0.04279 0.239993,-0.04623 0.230315,-0.04925 0.220423,-0.05226 0.210532,-0.05484 0.200423,-0.05742 0.190102,-0.059568 0.17978,-0.061504 0.169457,-0.063439 0.15849,-0.064729 0.147737,-0.066235 0.136985,-0.06731 0.125588,-0.068385 0.114405,-0.068815 0.103007,-0.069245 0.09161,-0.06946 0.07957,-0.06946 0.06796,-0.069245 0.05591,-0.068815 0.04365,-0.06817 0.0314,-0.067095 0.01936,-0.066235 0.0065,-0.064729 -6.45e-4,-0.019354 -0.0017,-0.019354 -0.0022,-0.019354 -0.0043,-0.019354 -0.0065,-0.019354 -0.0065,-0.019354 -0.0086,-0.019354 -0.0086,-0.019354 -0.01075,-0.021505 -0.01075,-0.021505 -0.0129,-0.021505 -0.0129,-0.021505 -0.01505,-0.021505 -0.01505,-0.021505 -0.0172,-0.021505 -0.0172,-0.021505 -0.221714,0.1356948 -0.247304,0.1275229 -0.270959,0.1191362 -0.29268,0.1107493 -0.312893,0.1021474 -0.330743,0.093545 -0.347086,0.084944 -0.361494,0.076342 -0.373967,0.067525 -0.384719,0.058708 -0.393322,0.049891 -0.400633,0.040859 -0.405579,0.032042 -0.408804,0.022795 -0.41031,0.015053 -0.40988,0.0043 -0.369881,-0.0043 L 8.363298,7.7772535 7.9938466,7.7578994 7.626546,7.7316636 7.2629013,7.6981162 6.9039876,7.6574723 6.5515253,7.6093018 6.2068047,7.5542497 l -0.00645,-6.451e-4 -0.00645,-4.301e-4 -0.010752,-6.452e-4 -0.00645,-2.15e-4 -0.00645,-4.301e-4 -0.00645,-6.452e-4 -0.00215,-4.301e-4 -0.00215,-4.301e-4 -0.010752,-0.00172 -0.010752,-0.00215 -0.010752,-0.00215 -0.010752,-0.00215 -0.019354,-0.0043 -0.019354,-0.0043 L 5.8825136,7.496402 5.6904764,7.4568333 5.5025252,7.4148991 5.3186599,7.3705994 5.1388805,7.3237191 4.9638321,7.2744733 4.7939448,7.2230771 4.6290036,7.1691002 4.5141685,7.1284563 h 2.5001383 l 0.2384873,0.027096 0.2449387,0.023655 0.2513901,0.021505 0.2578416,0.017204 0.2640775,0.012903 0.27053,0.010752 0.276335,0.00645 0.282572,0.00194 0.449234,-0.0043 0.43375,-0.015053 0.417837,-0.024515 0.401493,-0.033332 0.384719,-0.041719 0.367731,-0.049031 0.350096,-0.056342 0.332463,-0.062794 0.313969,-0.0686 0.295475,-0.073976 0.276551,-0.078492 0.256981,-0.083008 0.237412,-0.086234 0.217198,-0.08946 0.196553,-0.09161 0.175693,-0.093761 0.03591,-0.021505 0.03484,-0.021505 0.03355,-0.021505 0.03269,-0.021505 0.0314,-0.021505 0.03054,-0.021505 0.02946,-0.021505 0.0286,-0.021505 0.03054,-0.02344 0.02946,-0.023655 0.02817,-0.023655 0.02667,-0.023655 0.02538,-0.023655 0.02409,-0.023655 0.01075,-0.010752 0.01075,-0.012903 0.01075,-0.010752 0.01075,-0.010752 0.0172,-0.019354 0.01505,-0.019354 0.01505,-0.019354 0.0129,-0.019354 0.0129,-0.019354 0.01075,-0.019354 0.01075,-0.019354 0.0086,-0.019354 0.0086,-0.019354 0.0086,-0.019354 0.0065,-0.019354 0.0065,-0.019354 0.0043,-0.019354 0.0043,-0.019354 0.0022,-0.017204 0.0017,-0.017204 v -0.00151 l 2.15e-4,-0.00129 2.15e-4,-0.00215 2.15e-4,-0.00215 4.3e-4,-0.00215 4.3e-4,-0.00215 2.16e-4,-0.00215 2.15e-4,-0.00215 2.15e-4,-0.00129 v -0.00151 l -6.46e-4,-0.019354 -0.0017,-0.019354 -0.0021,-0.019354 -0.0043,-0.019354 -0.0043,-0.019354 -0.0065,-0.019354 -0.0086,-0.019354 -0.0086,-0.019354 -0.01075,-0.019354 -0.01075,-0.021505 -0.0129,-0.021505 -0.0129,-0.019354 -0.01505,-0.021505 -0.01505,-0.021505 -0.0172,-0.021505 -0.0172,-0.021505 -0.03763,0.024946 -0.03871,0.02473 -0.03957,0.0243 -0.04043,0.024085 -0.04107,0.02387 -0.04193,0.023655 -0.04301,0.023225 -0.04344,0.02301 -0.03312,0.017204 -0.03355,0.017204 -0.0686,0.033117 -0.07032,0.032472 -0.07183,0.032042 -0.08666,0.037203 -0.08903,0.036558 -0.09118,0.035483 -0.09333,0.034623 -0.104298,0.036988 -0.106448,0.035913 -0.108814,0.035053 -0.11118,0.033977 -0.263648,0.073976 -0.27397,0.0686 -0.283217,0.063224 -0.291819,0.057633 -0.299345,0.052041 -0.305797,0.046665 -0.311604,0.040859 -0.316334,0.035268 -0.02258,0.010752 -0.02301,0.010752 -0.02365,0.0086 -0.02409,0.0086 -0.02452,0.0086 -0.02516,0.0086 -0.02559,0.00645 -0.02602,0.00645 -0.02688,0.00645 -0.02731,0.0043 -0.02774,0.0043 -0.0286,0.0043 -0.02903,0.00215 -0.02968,0.00194 -0.03032,0.00108 -0.03097,4.301e-4 -0.04408,-4.301e-4 -0.04301,-0.00151 -0.04215,-0.00215 -0.0415,-0.0043 -0.04043,-0.0043 -0.03978,-0.00645 -0.03914,-0.00645 -0.03828,-0.0086 -0.269455,0.015053 -0.269884,0.010752 -0.269884,0.00645 -0.269454,0.00215 -0.232896,-0.00151 -0.233541,-0.0043 -0.233326,-0.00645 -0.2333266,-0.010752 -0.232466,-0.012903 -0.2316058,-0.017204 -0.2303155,-0.019354 -0.2288102,-0.02215 -0.039999,0.2025744 -0.02258,0.1027926 -0.025591,0.1023624 -0.028601,0.1008572 -0.015053,0.049676 -0.017204,0.048816 -0.017204,0.047956 -0.019354,0.04688 -0.021505,0.045805 -0.02215,0.044515 H 4.5135233 L 4.4687935,7.1168438 4.3150348,7.0581359 4.1672974,6.9970625 4.0257964,6.9338386 3.8907467,6.8680342 3.7625786,6.7998642 3.6415071,6.7295438 3.5279622,6.6568579 l -0.017204,0.021505 -0.017204,0.021505 -0.015053,0.021505 -0.015053,0.021505 -0.012903,0.021505 -0.012903,0.021505 -0.010752,0.021505 -0.010752,0.021505 -0.0086,0.019354 -0.0086,0.019354 -0.00645,0.019354 -0.0043,0.019354 -0.0043,0.019354 -0.00215,0.019354 -0.00194,0.019354 -4.301e-4,0.019354 h -0.544718 l 0.00108,-0.04602 0.0043,-0.04559 0.00645,-0.04516 0.0086,-0.04473 0.010752,-0.044085 0.012903,-0.04387 0.015053,-0.043225 0.017204,-0.042794 0.019354,-0.042149 0.021505,-0.041934 0.022795,-0.041289 0.024946,-0.041074 0.026881,-0.040429 0.028816,-0.039784 0.030752,-0.039569 0.032687,-0.039138 -0.022795,-0.026881 -0.02172,-0.027096 -0.021505,-0.027311 -0.019354,-0.027741 -0.019354,-0.027741 -0.017204,-0.028171 -0.017204,-0.028171 -0.017204,-0.028601 -0.015053,-0.028816 -0.015053,-0.028816 -0.012903,-0.029246 -0.012903,-0.029462 -0.010752,-0.029676 -0.010752,-0.029891 -0.0086,-0.030107 -0.0086,-0.030322 L 2.642613,5.9446217 2.4301464,6.0474142 2.2307977,6.1527873 2.0445668,6.260526 1.871884,6.3706301 1.7127491,6.4828847 l -0.1449418,0.11376 -0.06731,0.057633 -0.063439,0.057848 -0.059998,0.058278 -0.056342,0.058493 -0.052687,0.058923 -0.049031,0.058923 -0.04516,0.059353 -0.041504,0.059353 -0.037633,0.059783 -0.033762,0.059783 -0.029891,0.059783 -0.026021,0.059998 -0.02215,0.059998 -0.019354,0.059998 -0.015053,0.059998 -0.010752,0.059998 -0.00645,0.059998 -0.00194,0.059783 H 0.3846178 l 0.00215,-0.089245 0.0086,-0.088599 0.015053,-0.088169 0.019354,-0.087309 0.02473,-0.086449 0.029892,-0.086019 L 0.56009627,6.9693214 0.65622237,6.80309 0.77213277,6.6402993 0.90761247,6.4809493 1.0620164,6.3256853 1.2349143,6.1742921 1.4256611,6.0271998 1.6338268,5.8844085 1.8589811,5.7463482 2.0839205,5.6220509 H 3.3813 v 0.00151 0.00151 l 2.151e-4,0.00215 2.15e-4,0.00215 4.301e-4,0.00215 6.451e-4,0.00645 4.301e-4,0.00215 4.301e-4,0.00215 0.00172,0.017204 0.00215,0.017204 0.0043,0.019354 0.0043,0.019354 0.00645,0.019354 0.00645,0.019354 0.0086,0.019354 0.0086,0.019354 0.0086,0.019354 0.010752,0.019354 0.010752,0.019354 0.012903,0.019354 0.012903,0.019354 0.015053,0.019354 0.015053,0.019354 0.017204,0.019354 0.021505,0.023655 0.02258,0.023655 0.024085,0.02344 0.025161,0.023655 0.026881,0.023655 0.027956,0.023655 0.029462,0.023655 0.030752,0.023655 0.028386,0.021505 0.029462,0.021505 0.030537,0.021505 0.031612,0.021505 0.032472,0.021505 0.033762,0.021505 0.034623,0.021505 0.035913,0.021505 0.1335443,0.072256 0.146017,0.071181 0.1582747,0.06989 0.1705324,0.068385 0.1825751,0.06645 0.1941876,0.064514 0.2055851,0.062149 0.2169825,0.059783 L 5.3872599,6.7955633 5.3743571,6.7471777 5.3502718,6.6478259 5.3287671,6.5456785 5.3115633,6.4411656 5.29651,6.3347172 5.2836072,6.2267636 l -0.010752,-0.109029 -0.0086,-0.109674 -0.086879,-0.022795 -0.085589,-0.02344 -0.084513,-0.02387 -0.083438,-0.0243 L 4.8126539,5.8796774 4.703625,5.8446248 4.5969616,5.8087119 4.4928788,5.7717238 l -0.09333,-0.034623 -0.09118,-0.035483 -0.088814,-0.036343 -0.086879,-0.037418 -0.071826,-0.031827 -0.070105,-0.032687 -0.0686,-0.033117 -0.033547,-0.017204 -0.033117,-0.017204 -0.043655,-0.02301 -0.042794,-0.023225 -0.042149,-0.023655 -0.041074,-0.02387 -0.040429,-0.024085 -0.039569,-0.0243 -0.038708,-0.02473 -0.037633,-0.024946 -0.017204,0.021505 -0.017204,0.021505 -0.015053,0.021505 -0.015053,0.021505 -0.012903,0.019354 -0.012903,0.021505 -0.010752,0.021505 -0.010752,0.019354 -0.0086,0.019354 -0.0086,0.019354 -0.00645,0.019354 -0.0043,0.019354 -0.0043,0.019354 -0.00215,0.019354 -0.00194,0.019354 -4.301e-4,0.019354 H 2.0834904 l 0.017204,-0.0086 0.2574114,-0.1281681 0.2726798,-0.123222 0.2875181,-0.1176308 0.0086,-0.019354 0.0086,-0.019354 0.010752,-0.019354 0.010752,-0.019354 0.010752,-0.019354 0.010752,-0.019354 0.010752,-0.019354 0.012903,-0.019354 0.012903,-0.019354 0.012903,-0.019354 0.027526,-0.037203 0.029031,-0.036773 0.030537,-0.036558 -0.032687,-0.038924 -0.030752,-0.039569 -0.028816,-0.039784 -0.026881,-0.040429 -0.024945,-0.040859 -0.022795,-0.041504 -0.021505,-0.041719 -0.019354,-0.042364 -0.017204,-0.042794 -0.015053,-0.043224 -0.012903,-0.04387 -0.010752,-0.044085 -0.0086,-0.04473 -0.00645,-0.04516 -0.0043,-0.04559 -0.00108,-0.046235 h 0.5447145 l 4.301e-4,0.019354 0.00194,0.019354 0.00215,0.019354 0.0043,0.019354 0.0043,0.019354 0.00645,0.019354 0.0086,0.019354 0.0086,0.019354 0.010752,0.021505 0.010752,0.021505 0.012903,0.019354 0.012903,0.021505 0.015053,0.021505 0.015053,0.021505 0.017204,0.021505 0.017204,0.021505 0.021505,0.023655 0.02258,0.02344 0.024085,0.023655 0.025161,0.023655 0.026881,0.02344 0.027956,0.023655 0.029461,0.023655 0.030752,0.023655 0.022365,0.017204 0.023225,0.017204 0.02387,0.017204 0.024515,0.017204 0.025161,0.017204 0.025806,0.017204 0.026451,0.017204 0.027311,0.017204 0.028601,0.017204 0.015053,0.0086 0.00645,0.0043 0.00645,0.0043 0.075266,0.041504 0.079352,0.041289 0.083438,0.041074 0.087524,0.040429 0.091395,0.040214 0.095696,0.039569 0.099567,0.039139 0.1032227,0.038493 0.052256,0.019354 0.052902,0.019354 0.053762,0.019354 0.055052,0.017204 0.073331,0.02344 0.075051,0.02301 0.076557,0.02258 0.077847,0.02258 -0.00645,-0.087309 -0.0043,-0.042794 -0.0043,-0.042364 -0.00215,-0.024515 -0.00215,-0.0243 -0.0043,-0.048171 -0.00645,-0.057633 -0.0043,-0.028601 -0.0043,-0.028171 -0.00645,-0.035053 -0.00645,-0.033547 -0.0086,-0.032042 -0.0086,-0.030537 L 5.140604,4.8939019 5.129852,4.8661609 5.1191,4.8397099 5.106197,4.8147639 5.093294,4.7908939 5.080391,4.7683139 5.067488,4.7468089 5.052435,4.7274549 5.037382,4.7081009 5.022329,4.6908969 5.007276,4.6736929 4.992223,4.6586399 l -0.0086,-0.0086 -0.0086,-0.0086 -0.0086,-0.00645 -0.0086,-0.00645 -0.00645,-0.00645 -0.00645,-0.00645 -0.015053,-0.012903 -0.012903,-0.010752 -0.012903,-0.010752 -0.012903,-0.0086 -0.012903,-0.0086 -0.00645,-0.0043 -0.00645,-0.0043 -0.00645,-0.0043 -0.00645,-0.0043 -0.00645,-0.00215 -0.00645,-0.00215 -0.0043,-0.00215 -0.0043,-0.00215 -0.0086,-0.0043 -0.00645,-0.00215 -0.0043,-0.00151 L 4.809888,4.5296278 4.722579,4.5014568 4.63742,4.4730708 4.554197,4.4440398 4.472479,4.4147938 4.378718,4.3797408 4.287108,4.3442578 4.198293,4.3079148 4.112274,4.2711418 4.02733,4.2326478 3.945182,4.1937238 3.866045,4.1541548 3.789488,4.1139408 3.715942,4.0728668 3.645192,4.0315778 3.577237,3.9894288 3.512078,3.9468498 3.494874,3.9683548 3.47767,3.9898598 l -0.015053,0.021505 -0.015053,0.021505 -0.012903,0.021505 -0.012903,0.021505 -0.010752,0.019354 -0.0086,0.019354 -0.0086,0.019354 -0.00645,0.019354 -0.00645,0.019354 -0.0043,0.019354 -0.0043,0.019354 -0.00215,0.019354 -0.00194,0.019354 -4.301e-4,0.019354 H 2.8230376 l 0.00108,-0.045805 0.0043,-0.04559 0.00645,-0.044945 0.0086,-0.044515 0.010752,-0.044085 0.012903,-0.043655 0.015053,-0.043009 0.017204,-0.042794 0.019354,-0.042149 0.021505,-0.041719 0.022795,-0.041289 0.02473,-0.040644 0.026666,-0.040429 0.028601,-0.039784 0.030752,-0.039354 0.032257,-0.038924 -0.033332,-0.040214 -0.031182,-0.040429 -0.029031,-0.040859 -0.027096,-0.041074 -0.024945,-0.041504 -0.022795,-0.041934 -0.021505,-0.042149 -0.019354,-0.042579 -0.017204,-0.043009 -0.015053,-0.043224 -0.012903,-0.043439 -0.010752,-0.04387 -0.0086,-0.0443 -0.00645,-0.044515 -0.00215,-0.04473 -0.00108,-0.04516 H 3.367322 l 4.301e-4,0.019354 0.00194,0.019354 0.00215,0.019354 0.0043,0.019354 0.0043,0.019354 0.00645,0.019354 0.0086,0.019354 0.0086,0.021505 0.010752,0.019354 0.010752,0.021505 0.010752,0.021505 0.012903,0.021505 0.015053,0.021505 0.015053,0.021505 0.015053,0.021505 0.017204,0.021505 0.021505,0.02387 0.02258,0.023655 0.023655,0.02387 0.024945,0.02387 0.026451,0.02387 0.027741,0.023655 0.029031,0.02387 0.030537,0.023655 0.028386,0.021505 0.029677,0.021505 0.030537,0.021505 0.031827,0.021505 0.032472,0.021505 0.033762,0.021505 0.034623,0.021505 0.035698,0.021505 0.095266,0.052687 0.1012872,0.051826 0.1075236,0.050966 0.1133299,0.050106 0.1191361,0.049246 0.1245123,0.047956 0.1301035,0.046665 0.1352647,0.045375 0.035698,0.010752 0.017204,0.00645 0.017204,0.00645 0.015053,0.0043 0.015053,0.0043 0.015053,0.00645 0.017204,0.00645 0.017204,0.00645 0.017204,0.0086 0.017204,0.0086 0.017204,0.0086 0.017204,0.010752 0.019354,0.010752 0.019354,0.010752 0.019354,0.012903 0.019354,0.012903 0.019354,0.012903 0.019354,0.015053 0.019354,0.015053 0.028386,0.022795 0.028386,0.0243 0.028171,0.026021 0.027956,0.027526 0.015053,0.015053 0.015053,0.015053 0.012903,0.015053 0.012903,0.015053 0.012903,0.015053 0.012903,0.017204 0.012903,0.017204 0.012903,0.017204 0.012903,0.017204 0.012903,0.019354 0.012903,0.019354 0.012903,0.019354 0.012903,0.019354 0.012903,0.019354 0.010752,0.021505 0.010752,0.021505 0.02344,0.04645 0.02172,0.048386 0.021505,0.050536 0.019354,0.052472 0.0086,0.027096 0.0086,0.027526 0.0086,0.028171 0.00645,0.028816 0.00645,0.029247 0.00645,0.029891 0.0043,0.030322 0.0043,0.030967 0.00151,0.010752 0.00151,0.010752 0.00215,0.02344 0.00215,0.023655 0.00215,0.023225 0.00194,0.017204 0.00172,0.017204 0.0043,0.033977 0.012903,0.1337593 0.00645,0.067525 0.0043,0.06817 0.00645,0.083868 0.0043,0.084083 0.00215,0.042579 0.00151,0.021505 0.00129,0.021505 8.602e-4,0.010752 4.301e-4,0.00645 2.15e-4,0.00645 0.00645,0.088599 0.00645,0.086664 0.0043,0.072471 0.00645,0.07075 0.00645,0.068815 0.00645,0.06731 0.010752,0.092685 0.010752,0.088599 0.012903,0.084514 0.015053,0.079998 0.017204,0.075266 0.0086,0.035698 0.0086,0.034623 0.010752,0.033332 0.010752,0.032257 0.010752,0.030752 0.010752,0.029461 0.012903,0.027956 0.012903,0.026881 0.012903,0.025375 0.015053,0.02387 0.015053,0.02258 0.015053,0.021505 0.017204,0.019354 0.017204,0.017204 0.019354,0.017204 0.019354,0.015053 0.019354,0.012903 0.021505,0.010752 0.02172,0.010752 0.022795,0.0086 0.02344,0.00645 0.02473,0.0043 h 4.301e-4 l 6.451e-4,2.151e-4 0.00108,2.15e-4 6.452e-4,2.15e-4 4.301e-4,2.151e-4 h 6.451e-4 4.301e-4 l 2.15e-4,2.15e-4 h 4.301e-4 2.151e-4 l 4.301e-4,2.151e-4 h 2.15e-4 6.452e-4 4.301e-4 l 0.00108,2.15e-4 h 6.451e-4 2.151e-4 4.301e-4 l 0.010752,0.00129 0.0086,0.00129 0.0086,0.00108 0.0086,8.602e-4 0.0086,8.602e-4 0.0086,4.301e-4 0.0086,4.301e-4 h 0.0086 l 0.035698,-0.00215 0.033332,-0.00645 0.030752,-0.012903 0.028601,-0.017204 0.026666,-0.023225 0.024945,-0.029031 0.02344,-0.035053 0.02215,-0.041289 0.021505,-0.047525 0.019354,-0.054407 0.019354,-0.061288 0.019354,-0.068385 0.019354,-0.075912 0.019354,-0.083223 0.039138,-0.1905318 0.0043,-0.024945 0.0043,-0.025806 0.021505,-0.1064483 0.021505,-0.1064484 0.015053,-0.067095 0.015053,-0.066665 0.015053,-0.066235 6.451e-4,-0.00215 h 0.565144 l 0.2023593,0.019354 0.2066604,0.017204 0.2107462,0.015053 0.2150471,0.010752 0.2191326,0.0086 0.223219,0.00645 0.22752,0.0043 0.231391,0.00129 0.163651,-6.452e-4 0.1615,-0.00215 -0.02817,-0.036988 -0.02839,-0.038278 -0.02839,-0.039784 -0.02839,-0.041074 -0.0286,-0.042579 -0.0286,-0.044085 -0.02882,-0.04559 -0.02882,-0.047095 -0.0086,-0.015053 -0.0086,-0.015053 -0.0086,-0.015053 -0.01075,-0.015053 -0.01075,-0.012903 -0.01075,-0.012903 -0.01075,-0.012903 -0.01075,-0.012903 -0.01075,-0.012903 -0.01075,-0.012903 -0.02172,-0.024085 -0.02215,-0.02344 -0.02237,-0.022365 -0.02925,-0.027311 -0.02946,-0.026021 -0.02968,-0.0243 -0.02968,-0.022795 -0.02968,-0.021505 -0.02925,-0.019354 -0.02882,-0.019354 -0.02839,-0.017204 -0.02774,-0.015053 -0.02688,-0.015053 -0.02581,-0.012903 -0.02494,-0.010752 -0.02344,-0.010752 -0.02236,-0.0086 -0.02151,-0.0086 -0.01935,-0.00645 -0.0086,-0.00215 -0.0086,-0.00215 -0.0086,-0.00215 -0.0086,-0.00215 -0.0086,-0.00172 -0.0065,-0.00151 -0.0065,-0.00129 -0.0022,-2.151e-4 -0.0022,-4.301e-4 -0.03183,-0.00215 -0.03097,-0.00215 -0.02968,-0.00215 -0.02903,-0.00172 -0.02796,-0.00151 -0.02731,-8.602e-4 -0.02645,-6.451e-4 -0.02581,-2.151e-4 -0.046235,6.452e-4 -0.04559,0.00215 -0.04473,0.0043 -0.02215,0.00215 -0.021935,0.00215 -0.021935,0.0043 -0.02172,0.0043 -0.021505,0.0043 -0.021505,0.0043 -0.021505,0.00645 -0.021505,0.00645 -0.021505,0.00645 -0.021505,0.0086 -0.025161,0.010752 -0.025161,0.010752 -0.024945,0.012903 -0.024731,0.012903 -0.02473,0.015053 -0.024515,0.015053 -0.024515,0.017204 -0.0243,0.017204 -0.0243,0.019354 -0.0243,0.019354 -0.024085,0.02172 -0.0243,0.023225 -0.024085,0.0243 -0.024085,0.026021 -0.02387,0.027526 -0.024085,0.029031 -0.019354,0.023655 -0.019354,0.0243 -0.0086,0.012903 -0.010752,0.012903 -0.0086,0.012903 -0.0086,0.012903 -0.010752,0.015053 -0.010752,0.017204 -0.010752,0.017204 -0.0086,0.017204 -0.0086,0.017204 -0.0086,0.017204 -0.017204,0.036988 -0.015053,0.038493 -0.015053,0.040214 -0.015053,0.041289 -0.012903,0.042579 H 6.784636 l 0.017204,-0.063224 0.0086,-0.033977 0.0086,-0.033978 0.010752,-0.033547 0.010752,-0.033117 0.010752,-0.033117 0.010752,-0.032687 0.012903,-0.032472 0.012903,-0.032042 0.015053,-0.036988 0.017204,-0.036343 0.017204,-0.036128 0.017204,-0.035268 0.019354,-0.034838 0.019354,-0.034193 0.021505,-0.033332 0.02172,-0.032687 0.00108,-0.00172 0.00129,-0.00151 0.00108,-0.00172 0.00129,-0.00151 0.00215,-0.00215 0.00129,-0.00151 0.00108,-0.00172 0.030107,-0.041934 0.030322,-0.040644 0.030537,-0.039354 0.031182,-0.037848 0.031397,-0.036558 0.031827,-0.035053 0.032257,-0.033762 0.032687,-0.032257 0.00172,-0.00129 0.00151,-0.00151 0.00215,-0.00215 0.0043,-0.00215 0.00215,-0.00215 0.00645,-0.0043 0.00215,-0.00215 0.0043,-0.00215 0.050966,-0.04473 0.052256,-0.041504 0.053332,-0.038493 0.054622,-0.035698 0.055697,-0.032472 0.057203,-0.029676 0.058708,-0.026666 0.060213,-0.023655 0.061503,-0.021505 0.063224,-0.017204 0.064729,-0.015053 0.06645,-0.012903 0.068385,-0.010752 0.06989,-0.00645 0.072041,-0.0043 0.073762,-0.00151 0.03247,2.151e-4 0.03333,8.602e-4 0.03398,0.00108 0.03462,0.00172 0.03548,0.00215 0.03656,0.00215 0.03742,0.00215 0.03849,0.0043 0.03075,0.0043 0.03247,0.00645 0.03419,0.0086 0.03548,0.0086 0.03699,0.010752 0.03828,0.012903 0.03935,0.015053 0.04043,0.017204 0.04107,0.019354 0.04193,0.019354 0.04236,0.02215 0.04279,0.023655 0.04301,0.025591 0.04322,0.027311 0.04322,0.029031 0.04322,0.030752 v 0 0 0 0 0 0 0 h 2.15e-4 v 0 0 0 0 2.15e-4 0 0 0 0 0 0 0 0 0 0 0 0 0 l 0.03892,0.029462 0.03849,0.030967 0.03806,0.032257 0.03742,0.033762 0.03677,0.035268 0.03613,0.036773 0.0172,0.019354 0.0172,0.019354 0.0172,0.019354 0.0172,0.019354 0.01935,0.022365 0.0172,0.022795 0.0172,0.023225 0.0172,0.023655 0.0172,0.02387 0.0172,0.024515 0.0172,0.024946 0.01505,0.025591 0.0129,0.022365 0.0129,0.02172 0.02667,0.041934 0.03763,0.057633 0.03656,0.053117 0.0357,0.049246 0.03462,0.04516 0.03376,0.041504 0.0329,0.037848 0.03226,0.034408 0.03183,0.031182 0.03097,0.027956 0.03075,0.024945 0.03011,0.02215 0.03011,0.019354 0.02968,0.017204 0.02946,0.015053 0.02946,0.012903 0.02946,0.010752 0.0172,0.0043 0.0172,0.0043 0.0172,0.0043 0.0172,0.0043 0.0172,0.00215 0.0172,0.00215 0.0172,0.00215 0.0172,0.00194 0.03441,0.0043 0.03505,0.00194 0.03591,8.602e-4 0.03656,4.301e-4 0.0172,-2.151e-4 0.01505,-4.3e-4 0.01505,-0.00108 0.01505,-0.00129 0.01505,-0.00194 0.01505,-0.00215 0.01505,-0.00215 0.01505,-0.0043 0.01505,-0.0043 0.01505,-0.0043 0.01505,-0.00645 0.0129,-0.00645 0.01505,-0.0086 0.0129,-0.0086 0.01505,-0.010752 0.0129,-0.010752 0.01505,-0.012903 0.01505,-0.012903 0.01505,-0.015053 0.01505,-0.015053 0.01505,-0.017204 0.0065,-0.0086 h 0.631378 l 0.183436,-0.026666 0.178704,-0.028816 0.174188,-0.030322 0.169672,-0.032042 0.163436,-0.033332 0.158705,-0.034623 0.154189,-0.036343 0.149242,-0.037418 0.129889,-0.034623 0.126233,-0.035483 0.122361,-0.036558 0.118061,-0.037203 0.05484,-0.017204 0.05376,-0.017204 0.0529,-0.019354 0.05204,-0.019354 0.103438,-0.038494 0.09957,-0.039138 0.09548,-0.039569 0.09161,-0.039999 0.08752,-0.040644 0.08344,-0.040859 0.07935,-0.041289 0.07505,-0.041719 0.0086,-0.0043 0.0065,-0.0043 0.01505,-0.0086 0.02882,-0.017204 0.0271,-0.017204 0.02645,-0.017204 0.02602,-0.017204 0.02516,-0.017204 0.0243,-0.017204 0.02387,-0.017204 0.02323,-0.017204 0.02258,-0.017204 0.03054,-0.023655 0.02946,-0.023655 0.02817,-0.023655 0.02667,-0.023655 0.02537,-0.023655 0.02387,-0.02344 0.02258,-0.023655 0.01075,-0.010752 0.01075,-0.010752 0.0172,-0.021505 0.0172,-0.021505 0.01505,-0.021505 0.01505,-0.021505 0.0129,-0.021505 0.0129,-0.021505 0.01075,-0.021505 0.01075,-0.019354 0.0086,-0.021505 0.0086,-0.019354 0.0065,-0.019354 0.0065,-0.019354 0.0043,-0.019354 0.0022,-0.019354 0.0017,-0.019354 6.45e-4,-0.019354 -6.45e-4,-0.019354 -0.0017,-0.019354 -0.0022,-0.019354 -0.0043,-0.019354 -0.0043,-0.019354 -0.0065,-0.019354 -0.0065,-0.019354 -0.0086,-0.019354 -0.01075,-0.019354 -0.01075,-0.021505 -0.0129,-0.021505 -0.0129,-0.019354 -0.01505,-0.021505 -0.01505,-0.021505 -0.0172,-0.021505 -0.0172,-0.021505 -0.06516,0.042794 -0.06796,0.042149 -0.07097,0.041504 -0.07355,0.040859 -0.07634,0.040214 -0.07914,0.039569 -0.08193,0.038924 -0.08473,0.038278 -0.08602,0.036773 -0.08882,0.036343 -0.09118,0.035698 -0.09376,0.034838 -0.103223,0.036558 -0.106018,0.035913 -0.109029,0.035053 -0.111825,0.034193 -0.06,0.017204 -0.06086,0.017204 -0.124297,0.033978 -0.107309,0.028171 -0.109029,0.027741 -0.111394,0.027096 -0.11419,0.026236 -0.0022,6.452e-4 -0.0043,8.602e-4 -0.0086,0.00172 -0.01075,0.00194 -0.01505,0.00215 -0.07161,0.012903 -0.07828,0.017204 -0.08301,0.021505 -0.04279,0.012903 -0.04344,0.015053 -0.04344,0.015053 -0.04387,0.017204 -0.04365,0.017204 -0.04344,0.019354 -0.04279,0.02172 -0.04193,0.02344 -0.04107,0.025376 -0.04,0.027096 -0.0129,0.0086 -0.0129,0.0086 -0.0065,0.0043 -0.0065,0.0043 -0.0065,0.0043 -0.0065,0.0043 -0.01505,0.012903 -0.01505,0.012903 -0.01505,0.012903 -0.0129,0.012903 -0.0129,0.012903 -0.0129,0.015053 -0.0129,0.015053 -0.0129,0.015053 -0.0129,0.015053 -0.01075,0.015053 -0.01075,0.015053 -0.01075,0.017204 -0.01075,0.017204 -0.01075,0.017204 -0.0086,0.017204 -0.0086,0.017204 -0.0065,0.012903 -0.0022,0.00645 -0.0043,0.00645 -0.0022,0.00645 -0.0022,0.00645 -0.0022,0.00645 -0.0022,0.00645 -0.01935,0.052041 -0.01935,0.050966 -0.01935,0.050321 -0.01935,0.049676 -0.02366,0.057418 -0.02408,0.056127 -0.02452,0.054837 -0.02495,0.053332 h -0.631378 l 0.0086,-0.010752 0.01505,-0.021505 0.01505,-0.021935 0.01505,-0.023655 0.01505,-0.025161 0.01505,-0.027096 0.01505,-0.028816 0.03247,-0.063439 0.03355,-0.071396 0.02581,-0.057848 0.02645,-0.062794 0.02774,-0.06774 0.02839,-0.072471 0.0129,-0.030967 0.0129,-0.032042 0.01075,-0.025376 0.01075,-0.024946 0.01075,-0.024515 0.01075,-0.024515 0.0129,-0.024085 0.0129,-0.023655 0.0129,-0.023655 0.0129,-0.023225 8.6e-4,-0.00151 0.0011,-0.00172 0.0019,-0.00215 0.0022,-0.00215 0.0022,-0.00215 0.0043,-0.00645 0.0022,-0.00215 0.0022,-0.00215 0.02408,-0.036773 0.02559,-0.035913 0.02688,-0.035268 0.02817,-0.034408 0.02946,-0.033547 0.03075,-0.032687 0.03226,-0.031827 0.03333,-0.030752 0.03462,-0.030107 0.03591,-0.029246 0.0372,-0.028171 0.03849,-0.027526 0.03978,-0.026236 0.04086,-0.025591 0.04215,-0.024515 0.04344,-0.023655 0.04559,-0.02301 0.04667,-0.021935 0.04796,-0.021505 0.04925,-0.019354 0.05032,-0.019354 0.05161,-0.017204 0.05247,-0.017204 0.05376,-0.015053 0.0357,-0.010752 0.03613,-0.0086 0.03634,-0.0086 0.03699,-0.0086 0.0372,-0.0086 0.03785,-0.0086 0.03849,-0.00645 0.03892,-0.00645 0.01505,-0.00215 0.07806,-0.017204 0.07656,-0.017204 0.07527,-0.019354 0.07398,-0.019354 0.131179,-0.034623 0.126663,-0.035483 0.122147,-0.036343 0.117415,-0.036773 0.139996,-0.047095 0.132899,-0.047956 0.125803,-0.048601 0.118706,-0.049461 0.112039,-0.050106 0.105159,-0.050536 0.09828,-0.050751 0.09183,-0.051396 0.03591,-0.021505 0.03484,-0.021505 0.03355,-0.021505 0.03247,-0.021505 0.0314,-0.021505 0.03032,-0.021505 0.02903,-0.021505 0.02817,-0.021505 0.03075,-0.02387 0.02925,-0.024085 0.02796,-0.02387 0.02666,-0.02387 0.02516,-0.023655 0.02366,-0.023655 0.02215,-0.02344 0.01075,-0.010752 0.01075,-0.010752 0.0172,-0.021505 0.0172,-0.021505 0.01505,-0.021505 0.01505,-0.021505 0.0129,-0.021505 0.0129,-0.021505 0.01075,-0.021505 0.0086,-0.021505 0.0086,-0.019354 0.0086,-0.019354 0.0065,-0.019354 0.0043,-0.019354 0.0043,-0.019354 0.0021,-0.019354 0.0017,-0.019354 6.45e-4,-0.019354 -0.0043,-0.048816 -0.01075,-0.049891 -0.04344,-0.1015023 -0.07183,-0.1036527 -0.09957,-0.104943 L 14.464186,2.3924727 14.310642,2.2873146 14.130647,2.1832318 13.925062,2.0808693 13.694317,1.9813025 13.438841,1.8849614 13.159064,1.7929212 12.855633,1.7058271 12.529191,1.6243242 12.18017,1.5494878 11.808998,1.4817479 11.416107,1.4223949 v 0.019354 l -0.0015,0.04645 -0.0043,0.04731 -0.0086,0.048171 -0.01075,0.048386 -0.0129,0.048601 -0.01505,0.048386 -0.01935,0.047956 -0.0215,0.04731 -0.02344,0.046235 -0.02559,0.04516 -0.02753,0.043439 -0.02946,0.041934 -0.03118,0.039569 -0.0329,0.037633 -0.03419,0.034838 -0.0357,0.032042 -0.05677,0.04731 -0.289238,0.2425732 -0.295905,0.2479494 -0.140641,0.1178458 -0.03333,0.026236 -0.0357,0.025161 -0.03806,0.024085 -0.04,0.02258 -0.04172,0.021505 -0.04322,0.019354 -0.04473,0.019354 -0.04559,0.017204 -0.04645,0.015053 -0.0471,0.012903 -0.04731,0.010752 -0.04753,0.010752 -0.04731,0.0086 -0.04688,0.00645 -0.04645,0.0043 -0.04537,0.00108 h -0.0129 l -0.0129,-4.301e-4 -0.0129,-4.301e-4 -0.0129,-6.451e-4 -2.1889649,-0.1447267 -0.025161,-0.00215 -0.024945,-0.00215 -0.024515,-0.0043 -0.0243,-0.0043 -0.02387,-0.00645 -0.023225,-0.00645 -0.02301,-0.0086 -0.02258,-0.0086 -0.02215,-0.0086 -0.021505,-0.010752 -0.021505,-0.010752 -0.021505,-0.010752 -0.019354,-0.012903 -0.019354,-0.012903 -0.019354,-0.015053 -0.019354,-0.015053 -0.015053,-0.012903 -0.015053,-0.012903 -0.015053,-0.012903 -0.012903,-0.015053 -0.012903,-0.015053 -0.012903,-0.015053 -0.012903,-0.015053 -0.010752,-0.015053 -0.010752,-0.015053 -0.010752,-0.017204 -0.010752,-0.017204 -0.010752,-0.017204 -0.0086,-0.017204 -0.0086,-0.017204 -0.0086,-0.017204 -0.00645,-0.017204 -0.0086,-0.02344 -0.0086,-0.02387 -0.00645,-0.024085 -0.00215,-0.012903 -0.00215,-0.012903 -0.00215,-0.012903 -0.00215,-0.012903 -0.00172,-0.012903 -0.00129,-0.012903 -0.00108,-0.012903 -8.602e-4,-0.012903 -6.451e-4,-0.012903 v -0.012903 h 0.5444994 l 4.301e-4,0.00215 8.602e-4,0.00215 0.00129,0.00215 0.00194,0.00215 0.00215,0.0043 0.00215,0.0043 0.0043,0.0043 0.0043,0.0043 0.0043,0.0043 0.0043,0.0043 0.0043,0.00215 0.00645,0.00215 0.00215,0.00129 0.0043,0.00129 0.00215,0.00108 0.0043,8.602e-4 0.0043,8.602e-4 0.0043,6.452e-4 0.0043,6.451e-4 0.0043,2.15e-4 0.6210562,0.040859 1.5846833,0.1042979 0.0228,-6.452e-4 0.02387,-0.00215 0.0243,-0.00215 0.02451,-0.0043 0.02495,-0.00645 0.02473,-0.00645 0.02473,-0.00645 0.02408,-0.0086 0.02344,-0.0086 0.0228,-0.0086 0.02151,-0.0086 0.0215,-0.010752 0.01935,-0.010752 0.0172,-0.010752 0.01505,-0.010752 0.0129,-0.010752 0.0015,-0.00129 0.304292,-0.255261 0.476329,-0.3993426 0.0129,-0.010752 0.0129,-0.012903 0.0129,-0.015053 0.0129,-0.017204 0.0129,-0.017204 0.01075,-0.019354 0.01075,-0.019354 0.01075,-0.019354 0.0086,-0.021505 0.0086,-0.021505 0.0086,-0.019354 0.0065,-0.019354 0.0043,-0.019354 0.0043,-0.019354 0.0022,-0.017204 8.6e-4,-0.015053 V 1.185628 l -2.15e-4,-0.00108 -2.15e-4,-0.00108 -8.6e-4,-0.00215 -0.0013,-0.00215 -0.0019,-0.00215 -0.0022,-0.0043 -0.0022,-0.0043 -0.0043,-0.0043 -0.0043,-0.0043 -0.0043,-0.0043 -0.0043,-0.0043 -0.0043,-0.00215 -0.0065,-0.00215 -0.0022,-0.00108 -0.0022,-0.00108 -0.0043,-0.00108 -0.0022,-8.602e-4 -0.0043,-8.602e-4 -0.0043,-6.451e-4 -0.0043,-4.301e-4 -0.0043,-2.151e-4 -2.139289,-0.132469 -0.08903,-0.00645 -0.01075,2.15e-4 -0.0129,6.451e-4 -0.0129,8.602e-4 -0.0129,0.00108 -0.0129,0.00151 -0.0129,0.00194 -0.0129,0.00194 -0.0129,0.00215 -0.01935,0.0043 -0.01935,0.0043 -0.01936,0.0043 -0.01935,0.0043 -0.01935,0.0043 -0.01935,0.00645 -0.01936,0.00645 -0.0172,0.00645 -0.0172,0.00645 -0.0172,0.00645 -0.0172,0.0086 -0.01505,0.0086 -0.015053,0.0086 -0.012903,0.0086 -0.012903,0.0086 -0.010752,0.0086 -0.2664435,0.196123 -0.4679426,0.3438605 -0.012903,0.010752 -0.012903,0.012903 -0.012903,0.015053 -0.012903,0.015053 -0.012903,0.017204 -0.010752,0.017204 -0.010752,0.017204 -0.010752,0.019354 -0.0086,0.019354 -0.0086,0.019354 -0.00645,0.017204 -0.00645,0.017204 -0.0043,0.017204 -0.0043,0.015053 -0.00215,0.015053 -8.602e-4,0.012903 V 2.3098945 H 6.7910878 V 1.9154981 l 8.602e-4,-0.032042 0.00215,-0.032257 0.0043,-0.032902 0.00645,-0.032902 0.00645,-0.033332 0.0086,-0.033332 0.010752,-0.033332 0.010752,-0.033332 0.012903,-0.033117 0.015053,-0.032902 0.015053,-0.032472 0.017204,-0.032042 0.017204,-0.031612 0.019354,-0.030752 0.019354,-0.030322 0.019354,-0.029246 -0.209456,0.027526 -0.2040797,0.029892 -0.1982735,0.032042 -0.1926823,0.034193 -0.1866609,0.036128 -0.1810697,0.038063 -0.1750484,0.039999 -0.1690271,0.041504 -0.1627907,0.043224 -0.1569844,0.044515 -0.150533,0.04602 -0.1442967,0.04731 -0.1378452,0.048386 -0.1316089,0.049676 -0.1251574,0.050321 -0.118276,0.051396 -0.1120395,0.052041 -0.104943,0.052687 -0.098492,0.053117 -0.091395,0.053547 -0.084729,0.053977 -0.077632,0.054192 -0.070536,0.054192 -0.063439,0.054192 -0.056127,0.054192 -0.049031,0.053762 -0.041504,0.053547 -0.034193,0.053332 -0.026666,0.052471 -0.019354,0.052041 -0.010752,0.051181 -0.0043,0.050321 H 2.843252 L 2.849702,2.7971947 2.869056,2.6883809 2.901958,2.5825776 2.947548,2.479355 3.005181,2.379143 3.074641,2.281727 3.155284,2.187106 3.247109,2.095281 3.4621577,1.9204441 3.7165585,1.7570083 4.0070872,1.605185 4.3307332,1.4654043 4.6844858,1.3372362 5.0653343,1.2211108 5.4700531,1.1170279 l 0.4255783,-0.09204 0.4432122,-0.079568 0.4580505,-0.06731 0.4694479,-0.054837 0.4780499,-0.042364 0.1427913,-0.104943 0.036988,-0.025376 0.039569,-0.0243 0.042149,-0.02301 0.0443,-0.02172 0.046235,-0.019354 0.047525,-0.019354 0.049031,-0.017204 0.049676,-0.015053 0.050536,-0.012903 0.05054,-0.010752 0.05075,-0.0086 0.05032,-0.0086 0.04946,-0.00645 0.04882,-0.00215 0.04731,-0.00108 z"
       id="path5" />
  </g>
</svg>
